<?xml version="1.0" encoding="utf-8"?>
<svg viewBox="0 0 500 500" xmlns="http://www.w3.org/2000/svg">
  <path style="fill: rgb(216, 216, 216); stroke: rgb(0, 0, 0);" d="M 145.598 226.941 L 155.485 293.454 L 214.808 292.869 L 227.991 226.298 L 145.598 226.941 Z"/>
  <path style="fill: rgb(216, 216, 216); stroke: rgb(0, 0, 0);" d="M 181.716 225.734 C 181.716 216.722 182.795 200.854 177.201 195.26 C 174.008 192.067 178.894 178.712 178.894 175.508 C 178.894 169.484 176.99 160.34 178.894 154.628 C 181.173 147.79 180.587 139.135 180.587 131.49 C 180.587 129.452 181.473 124.796 180.587 123.025 C 179.394 120.639 181.717 112.868 180.023 111.174 C 178.277 109.428 167.155 95.598 174.379 91.986 C 175.11 91.621 177.92 91.732 178.33 92.551 C 180.395 96.681 178.894 108.857 178.894 113.431"/>
  <path style="fill: rgb(216, 216, 216); stroke: rgb(0, 0, 0);" d="M 180.587 126.411 C 181.218 125.464 190.419 113.908 192.438 117.946 C 193.967 121.004 194.408 126.837 190.745 128.668 C 186.812 130.635 182.534 128.104 178.894 128.104"/>
  <path style="fill: rgb(216, 216, 216); stroke: rgb(0, 0, 0);" d="M 177.201 164.221 C 177.201 159.14 181.836 154.628 186.795 154.628 C 187.825 154.628 191.31 154.066 191.874 155.192 C 195.443 162.331 182.28 172.596 182.28 158.578"/>
  <path style="fill: rgb(216, 216, 216); stroke: rgb(0, 0, 0);" d="M 177.765 181.716 C 177.221 179.541 176.831 177.96 175.508 176.637 C 175.165 176.293 170.831 171.72 169.865 172.686 C 168.931 173.62 163.343 183.095 165.35 185.102 C 166.767 186.518 168.163 183.599 168.736 183.409 C 172.576 182.129 174.407 178.316 178.894 176.072"/>
  <path style="fill: rgb(216, 216, 216); stroke: rgb(0, 0, 0);" d="M 178.33 199.21 C 181.678 195.861 180.408 193.938 184.537 191.874 C 190.179 189.053 189.636 201.448 187.923 203.16 C 184.815 206.269 179.937 197.432 178.894 196.388"/>
  <path style="fill: rgb(216, 216, 216); stroke: rgb(0, 0, 0);" d="M 179.458 146.727 C 186.663 157.534 200.277 153.56 207.111 146.727 C 207.936 145.901 215.011 142.503 215.011 142.212"/>
  <path style="fill: rgb(216, 216, 216); stroke: rgb(0, 0, 0);" d="M 176.637 190.181 C 172.916 191.421 167.778 197.91 164.786 200.903 C 162.136 203.553 153.516 203.16 148.984 203.16"/>
  <path style="fill: rgb(216, 216, 216); stroke: rgb(0, 0, 0);" d="M 181.151 216.14 C 181.151 214.704 186.176 212.754 187.923 212.754 C 191.306 211.908 202.301 209.785 205.982 211.625 C 212.292 214.78 224.041 216.909 224.041 205.982"/>
  <path style="fill: rgb(216, 216, 216); stroke: rgb(0, 0, 0);" d="M 220.09 212.754 C 220.09 224.368 237.047 211.625 224.041 211.625"/>
  <path style="fill: rgb(216, 216, 216); stroke: rgb(0, 0, 0);" d="M 212.19 213.318 C 213.555 209.222 209.467 206.347 211.061 203.16 C 212.651 199.98 214.975 206.473 215.011 206.546 C 216.354 209.232 215.011 214.065 215.011 216.14"/>
  <path style="fill: rgb(216, 216, 216); stroke: rgb(0, 0, 0);" d="M 201.467 209.932 C 199.458 211.942 198.575 225.757 202.032 224.605 C 205.911 223.312 208.6 212.754 203.16 212.754"/>
  <path style="fill: rgb(216, 216, 216); stroke: rgb(0, 0, 0);" d="M 193.002 212.754 C 193.628 211.972 196.971 198.1 198.081 199.21 C 199.943 201.071 197.652 212.19 195.824 212.19"/>
  <path style="fill: rgb(216, 216, 216); stroke: rgb(0, 0, 0);" d="M 158.578 202.596 C 156.422 201.877 154.063 194.695 154.063 194.695 C 154.063 194.695 155.693 199.273 158.014 196.953 C 159.637 195.329 153.295 193.207 156.885 189.616 C 162.837 183.665 161.4 200.233 161.4 202.596"/>
  <path style="fill: rgb(216, 216, 216); stroke: rgb(0, 0, 0);" d="M 165.914 197.517 C 167.215 199.469 166.091 208.61 167.607 209.368 C 170.37 210.749 175.527 200.922 174.379 199.774 C 173.559 198.954 168.736 200.69 168.736 199.21"/>
  <path style="fill: rgb(216, 216, 216); stroke: rgb(0, 0, 0);" d="M 196.953 154.628 C 196.953 151.47 196.545 147.916 195.824 145.034 C 195.382 143.267 192.438 142.654 192.438 141.084 C 192.438 140.965 194.742 140.047 195.26 141.084 C 196.374 143.311 196.112 146.443 200.339 145.034 C 201.012 144.809 203.707 137.099 204.853 139.391 C 207.858 145.401 200.688 148.635 198.081 151.242"/>
  <path style="fill: rgb(216, 216, 216); stroke: rgb(0, 0, 0);" d="M 205.982 146.727 C 205.982 148.35 205.274 152.083 205.982 153.499 C 206.14 153.815 211.779 154.885 212.19 154.063 C 214.842 148.758 214.862 143.341 208.804 143.341"/>
  <path style="fill: rgb(216, 216, 216); stroke: rgb(0, 0, 0);" d="M 171.558 136.569 C 168.275 137.663 166.198 134.452 163.093 136.005 C 162.863 136.119 163.209 138.652 163.093 138.826 C 162.709 139.401 159.293 140.67 160.835 142.212 C 163.062 144.439 167.907 137.962 169.3 136.569"/>
  <path style="fill: rgb(216, 216, 216); stroke: rgb(0, 0, 0);" d="M 165.914 139.955 C 165.914 143.586 166.399 150.892 163.657 151.806 C 161.973 152.367 162.09 157.575 160.835 156.321 C 160.354 155.84 160.174 143.438 160.835 142.777 C 161.588 142.024 164.157 140.519 163.093 140.519 C 162.56 140.519 161.726 142.124 161.964 141.648 C 164.763 138.848 177.325 132.742 180.023 135.44"/>
  <path style="fill: rgb(216, 216, 216); stroke: rgb(0, 0, 0);" d="M 181.151 138.826 C 183.096 138.826 189.163 134.987 191.309 137.133 C 195.825 141.649 188.57 149.872 182.28 146.727 C 181.876 146.525 182.28 141.666 182.28 141.084"/>
  <path style="fill: rgb(216, 216, 216); stroke: rgb(0, 0, 0);" d="M 177.765 169.3 C 173.963 169.3 165.51 168.012 163.093 170.429 C 161.588 171.933 152.512 180.165 150.113 177.765 C 148.392 176.044 148.739 171.313 147.291 169.865 C 145.964 168.537 148.381 164.747 150.113 166.479 C 152.646 169.011 151.447 178.483 150.113 181.151 C 150.067 181.243 146.203 186.795 146.727 186.795 C 166.562 186.795 154.034 167.102 159.142 156.885 C 160.436 154.297 161.4 159.152 161.4 159.707 C 161.4 164.149 160.835 167.384 160.835 172.122"/>
  <path style="fill: rgb(216, 216, 216); stroke: rgb(0, 0, 0);" d="M 150.677 178.894 C 146.981 177.662 143.65 181.612 139.955 182.844 C 133.727 184.92 130.561 178.33 127.54 178.33"/>
  <path style="fill: rgb(216, 216, 216); stroke: rgb(0, 0, 0);" d="M 131.49 176.072 C 128.811 170.714 127.782 164.786 136.569 164.786 C 138.638 164.786 136.569 168.924 136.569 170.993 C 136.569 175.215 135.063 182.844 131.49 182.844"/>
</svg>